<?xml version="1.0" encoding="utf-8"?><!-- Uploaded to: SVG Repo, www.svgrepo.com, Generator: SVG Repo Mixer Tools -->
<svg width="800px" height="800px" viewBox="0 0 48 48" xmlns="http://www.w3.org/2000/svg"><title>70 Basic icons by Xicons.co</title><rect x="1" y="5" width="46" height="34" rx="2" ry="2" fill="#ea802a"/><rect x="1" y="13" width="46" height="10" fill="#ecebec"/><path d="M15,29H7a1,1,0,0,1,0-2h8A1,1,0,0,1,15,29Z" fill="#ae6820"/><path d="M28,29H20a1,1,0,0,1,0-2h8A1,1,0,0,1,28,29Z" fill="#ae6820"/><path d="M41,29H33a1,1,0,0,1,0-2h8A1,1,0,0,1,41,29Z" fill="#ae6820"/><path d="M11,34H7a1,1,0,0,1,0-2h4A1,1,0,0,1,11,34Z" fill="#ae6820"/></svg>